<svg xmlns="http://www.w3.org/2000/svg" viewBox="0 0 192.11 54.8"><defs><style>.cls-1{fill:#e84945;}.cls-2{fill:none;stroke:#fff;stroke-miterlimit:10;stroke-width:3px;}.cls-3{fill:#233f56;}</style></defs><title>Artboard 1</title><g id="Layer_1" data-name="Layer 1"><path class="cls-1" d="M56.47,15.13C55.38,10,50.32,4.15,43.93,3.69,36.15,3.14,31.71,7.46,30,11.77A15.09,15.09,0,0,0,15.92,3.69C9.53,4.15,3.87,10.56,3.51,15.77c-.83,12,8.42,26,26.42,35.38C48,41.72,58.8,26.11,56.47,15.13Z"/><line class="cls-2" x1="9.06" y1="38.74" x2="26.48" y2="38.74"/><circle class="cls-2" cx="29.35" cy="38.42" r="2.87"/><line class="cls-2" x1="16.27" y1="28.53" x2="43.07" y2="28.53"/><circle class="cls-2" cx="45.94" cy="28.21" r="2.87"/><circle class="cls-2" cx="13.4" cy="28.85" r="2.87"/><line class="cls-2" x1="59.23" y1="18.32" x2="32.22" y2="18.32"/><circle class="cls-2" cx="29.35" cy="18.64" r="2.87"/></g><g id="Layer_2" data-name="Layer 2"><path class="cls-3" d="M75.53,5.1H70.72L64.38,25.49h4l1.27-4.72h6.76l1.27,4.72h4.13ZM70.46,17.82l2.6-9.74,2.6,9.74Z"/><path class="cls-3" d="M100.56,9.44a5.56,5.56,0,0,0-4.69,2.63,3.81,3.81,0,0,0-3.78-2.63,5.3,5.3,0,0,0-4.52,2.48l-.29-2H84V25.49h3.78V14.63c.86-1.45,1.65-2.36,3-2.36.92,0,1.71.56,1.71,2.51V25.49h3.78V14.63c.86-1.45,1.65-2.36,3-2.36.94,0,1.71.56,1.71,2.51V25.49h3.78V14.19C104.69,11.24,103,9.44,100.56,9.44Z"/><path class="cls-3" d="M115,9.44c-4.43,0-6.94,3.6-6.94,8.35,0,4.93,2.6,8.14,7.44,8.14a9,9,0,0,0,5.78-2.09l-1.56-2.15a6.49,6.49,0,0,1-3.9,1.39c-2.07,0-3.57-1-3.84-4.22h9.8c0-.41.09-1,.09-1.54C121.9,12.39,119.39,9.44,115,9.44Zm3.13,7H112c.21-3.1,1.33-4.28,3.1-4.28,2.13,0,3,1.53,3,4.1Z"/><path class="cls-3" d="M129,13l-.35-3.07h-3.28V25.49h3.78V17.17c.59-2.63,1.56-4,3.45-4a5.25,5.25,0,0,1,1.39.18l.65-3.66a5.42,5.42,0,0,0-1.56-.21C131.26,9.47,129.76,10.71,129,13Z"/><rect class="cls-3" x="137.02" y="9.88" width="3.78" height="15.61"/><path class="cls-3" d="M138.88,2a2.26,2.26,0,0,0-2.36,2.3,2.38,2.38,0,0,0,4.75,0A2.27,2.27,0,0,0,138.88,2Z"/><path class="cls-3" d="M151.86,12.42A4.73,4.73,0,0,1,155,13.57l1.71-2.3a7.27,7.27,0,0,0-5.08-1.83c-4.49,0-7.29,3.39-7.29,8.38s2.8,8.12,7.32,8.12a7.7,7.7,0,0,0,5-1.8L155,21.66a4.74,4.74,0,0,1-3.1,1.21c-2.12,0-3.51-1.33-3.51-5.11S149.68,12.42,151.86,12.42Z"/><path class="cls-3" d="M171,21.36V14.81c0-3.45-1.83-5.37-6-5.37a16.12,16.12,0,0,0-5.67,1.12l.89,2.57a13.92,13.92,0,0,1,4.13-.83c2,0,2.92.68,2.92,2.71v.89h-1.95c-4.54,0-7.11,1.83-7.11,5.22,0,2.83,1.92,4.81,5,4.81a5.32,5.32,0,0,0,4.66-2.33,3.61,3.61,0,0,0,3.45,2.27l.8-2.51C171.4,23.07,171,22.63,171,21.36Zm-3.72-.09a3.34,3.34,0,0,1-3,1.92A2.07,2.07,0,0,1,162,20.83c0-1.83,1.21-2.71,3.66-2.71h1.56Z"/><path class="cls-3" d="M183.89,9.44a5.83,5.83,0,0,0-4.75,2.48l-.29-2h-3.28V25.49h3.78V14.63c.92-1.45,1.92-2.36,3.28-2.36,1.18,0,1.92.56,1.92,2.51V25.49h3.78V14.19C188.32,11.21,186.69,9.44,183.89,9.44Z"/><path class="cls-3" d="M71.72,49.67c-3.54,0-6.34-2.75-6.34-8.88,0-6.43,2.92-8.91,6.43-8.91a6.1,6.1,0,0,1,4.13,1.53l.94-1.18a7.33,7.33,0,0,0-5.19-1.86c-4.49,0-8.17,3.51-8.17,10.42S67,51.24,71.67,51.24a7.57,7.57,0,0,0,5.46-2.09L76.18,48A6.47,6.47,0,0,1,71.72,49.67Z"/><path class="cls-3" d="M90.53,47.49V40.05c0-3.16-1.53-4.9-5-4.9a12.9,12.9,0,0,0-4.87,1l.44,1.3a12.57,12.57,0,0,1,4.19-.88c2.57,0,3.57,1.09,3.57,3.54v1.48h-3c-4,0-6.4,1.77-6.4,5,0,2.75,1.8,4.6,4.78,4.6a5.31,5.31,0,0,0,4.81-2.6,2.68,2.68,0,0,0,2.39,2.6L91.83,50C91,49.7,90.53,49.2,90.53,47.49Zm-1.71-.35a4.67,4.67,0,0,1-4.28,2.71,3,3,0,0,1-3.25-3.3c0-2.45,1.74-3.66,4.84-3.66h2.69Z"/><path class="cls-3" d="M98.38,38.93l-.15-3.45H96.76V50.91h1.71V41.47c.83-3.16,2-4.69,4.13-4.69A4.88,4.88,0,0,1,104,37l.32-1.62a5.76,5.76,0,0,0-1.53-.18C100.59,35.15,99.21,36.39,98.38,38.93Z"/><path class="cls-3" d="M112.4,35.15c-3.78,0-6.17,3.25-6.17,8.17s2.48,7.91,6.55,7.91a7.62,7.62,0,0,0,5-1.89l-.8-1.09a6.42,6.42,0,0,1-4.16,1.54c-2.66,0-4.6-1.74-4.81-5.93h10.3c0-.29.06-.77.06-1.24C118.42,38.08,116.41,35.15,112.4,35.15Zm4.34,7.38h-8.68c.18-4.19,2-6,4.4-6,2.92,0,4.28,2.15,4.28,5.52Z"/></g></svg>