<svg id="Layer_1" data-name="Layer 1" xmlns="http://www.w3.org/2000/svg" viewBox="0 0 330 90"><defs><style>.cls-1,.cls-4{font-size:50px;fill:#233f56;}.cls-1{font-family:FiraSans-Medium, Fira Sans;}.cls-2{fill:#e84945;}.cls-3{fill:none;stroke:#fff;stroke-miterlimit:10;stroke-width:4px;}.cls-4{font-family:FiraSans-Light, Fira Sans;}.cls-5{letter-spacing:-0.01em;}</style></defs><title>Logo</title><text class="cls-1" transform="translate(109.31 42.25)">American</text><path class="cls-2" d="M51.45,86.1C20.46,70.17,4.54,46.2,6,25.78,6.56,17,16.16,6.09,27,5.32,40.16,4.39,49,14.43,50.9,19c2.82-7.3,10.35-14.61,23.52-13.68C85.25,6.09,93.83,16,95.66,24.7c4,18.74-14.72,45.48-45.7,61.4"/><line class="cls-3" x1="11.4" y1="64.5" x2="44.86" y2="64.69"/><circle class="cls-3" cx="49.73" cy="64.15" r="4.86"/><line class="cls-3" x1="27.57" y1="47.4" x2="72.97" y2="47.4"/><circle class="cls-3" cx="77.83" cy="46.85" r="4.86"/><circle class="cls-3" cx="22.71" cy="47.94" r="4.86"/><line class="cls-3" x1="104.31" y1="30.1" x2="54.59" y2="30.1"/><circle class="cls-3" cx="49.73" cy="30.64" r="4.86"/><text class="cls-4" transform="translate(104.31 85.31)">Ca<tspan class="cls-5" x="54.3" y="0">r</tspan><tspan x="72.45" y="0">e</tspan></text></svg>