<?xml version="1.0" encoding="utf-8"?>
<!-- Generator: Adobe Illustrator 21.1.0, SVG Export Plug-In . SVG Version: 6.00 Build 0)  -->
<svg version="1.1" xmlns="http://www.w3.org/2000/svg" xmlns:xlink="http://www.w3.org/1999/xlink" x="0px" y="0px"
	 viewBox="0 0 193 55" style="enable-background:new 0 0 193 55;" xml:space="preserve">
<style type="text/css">
	.st0{fill:#333333;}
	.st1{fill:#FFFFFF;}
	.st2{fill:none;stroke:#333333;stroke-width:3;stroke-miterlimit:10;}
</style>
<g id="Layer_3">
	<rect y="-0.5" class="st0" width="193" height="56.5"/>
</g>
<g id="Layer_1">
	<path class="st1" d="M57.9,15.2c-1.1-5.1-6.1-11-12.5-11.4c-7.8-0.6-12.2,3.8-13.9,8.1c-1.1-2.7-6.3-8.6-14.1-8.1
		C11,4.2,5.3,10.7,5,15.9c-0.8,12,8.4,26,26.4,35.4C49.4,41.8,60.2,26.2,57.9,15.2z"/>
	<g>
		<path class="st1" d="M77,5.2h-4.8l-6.3,20.4h4l1.3-4.7h6.8l1.3,4.7h4.1L77,5.2z M71.9,17.9l2.6-9.7l2.6,9.7H71.9z"/>
		<path class="st1" d="M102,9.5c-2.1,0-3.5,1-4.7,2.6c-0.6-1.7-1.9-2.6-3.8-2.6c-2,0-3.4,0.9-4.5,2.5l-0.3-2h-3.3v15.6h3.8V14.7
			c0.9-1.4,1.7-2.4,3-2.4c0.9,0,1.7,0.6,1.7,2.5v10.7h3.8V14.7c0.9-1.4,1.7-2.4,3-2.4c0.9,0,1.7,0.6,1.7,2.5v10.7h3.8V14.3
			C106.1,11.3,104.5,9.5,102,9.5z"/>
		<path class="st1" d="M116.5,9.5c-4.4,0-6.9,3.6-6.9,8.4c0,4.9,2.6,8.1,7.4,8.1c2.4,0,4.2-0.9,5.8-2.1l-1.6-2.2
			c-1.4,0.9-2.5,1.4-3.9,1.4c-2.1,0-3.6-1-3.8-4.2h9.8c0-0.4,0.1-1,0.1-1.5C123.3,12.5,120.8,9.5,116.5,9.5z M119.6,16.5h-6.1
			c0.2-3.1,1.3-4.3,3.1-4.3c2.1,0,3,1.5,3,4.1V16.5z"/>
		<path class="st1" d="M130.5,13.1l-0.4-3.1h-3.3v15.6h3.8v-8.3c0.6-2.6,1.6-4,3.5-4c0.5,0,0.9,0.1,1.4,0.2l0.6-3.7
			c-0.5-0.1-1-0.2-1.6-0.2C132.7,9.6,131.2,10.8,130.5,13.1z"/>
		<rect x="138.5" y="10" class="st1" width="3.8" height="15.6"/>
		<path class="st1" d="M140.3,2.1c-1.4,0-2.4,1-2.4,2.3c0,1.3,1,2.3,2.4,2.3c1.4,0,2.4-1,2.4-2.3C142.7,3.1,141.7,2.1,140.3,2.1z"/>
		<path class="st1" d="M153.3,12.5c1.2,0,2.1,0.4,3.1,1.2l1.7-2.3c-1.5-1.3-3-1.8-5.1-1.8c-4.5,0-7.3,3.4-7.3,8.4s2.8,8.1,7.3,8.1
			c2,0,3.6-0.6,5-1.8l-1.7-2.5c-1.1,0.8-1.9,1.2-3.1,1.2c-2.1,0-3.5-1.3-3.5-5.1C149.8,14.1,151.1,12.5,153.3,12.5z"/>
		<path class="st1" d="M172.4,21.5v-6.6c0-3.5-1.8-5.4-6-5.4c-1.8,0-3.7,0.4-5.7,1.1l0.9,2.6c1.6-0.5,3.1-0.8,4.1-0.8
			c2,0,2.9,0.7,2.9,2.7V16h-1.9c-4.5,0-7.1,1.8-7.1,5.2c0,2.8,1.9,4.8,5,4.8c1.9,0,3.6-0.7,4.7-2.3c0.6,1.5,1.7,2.1,3.5,2.3l0.8-2.5
			C172.8,23.2,172.4,22.7,172.4,21.5z M168.7,21.4c-0.7,1.2-1.7,1.9-3,1.9c-1.4,0-2.2-0.9-2.2-2.4c0-1.8,1.2-2.7,3.7-2.7h1.6V21.4z"
			/>
		<path class="st1" d="M185.3,9.5c-2,0-3.5,0.9-4.8,2.5l-0.3-2H177v15.6h3.8V14.7c0.9-1.4,1.9-2.4,3.3-2.4c1.2,0,1.9,0.6,1.9,2.5
			v10.7h3.8V14.3C189.8,11.3,188.1,9.5,185.3,9.5z"/>
		<path class="st1" d="M73.2,49.8c-3.5,0-6.3-2.7-6.3-8.9c0-6.4,2.9-8.9,6.4-8.9c1.7,0,2.8,0.5,4.1,1.5l0.9-1.2
			c-1.4-1.2-2.8-1.9-5.2-1.9c-4.5,0-8.2,3.5-8.2,10.4c0,6.8,3.5,10.4,8.1,10.4c2.5,0,4.3-0.9,5.5-2.1l-0.9-1.2
			C76.4,49,75.3,49.8,73.2,49.8z"/>
		<path class="st1" d="M92,47.6v-7.4c0-3.2-1.5-4.9-5-4.9c-1.6,0-3.2,0.4-4.9,1l0.4,1.3c1.5-0.6,3-0.9,4.2-0.9
			c2.6,0,3.6,1.1,3.6,3.5v1.5h-3c-4,0-6.4,1.8-6.4,5c0,2.7,1.8,4.6,4.8,4.6c2.1,0,3.7-0.8,4.8-2.6c0.2,1.7,1,2.3,2.4,2.6l0.4-1.2
			C92.4,49.8,92,49.3,92,47.6z M90.3,47.2c-1,1.7-2.3,2.7-4.3,2.7c-2,0-3.2-1.2-3.2-3.3c0-2.5,1.7-3.7,4.8-3.7h2.7V47.2z"/>
		<path class="st1" d="M99.8,39l-0.1-3.5h-1.5V51h1.7v-9.4c0.8-3.2,2-4.7,4.1-4.7c0.5,0,0.9,0.1,1.4,0.2l0.3-1.6
			c-0.4-0.1-0.9-0.2-1.5-0.2C102,35.3,100.7,36.5,99.8,39z"/>
		<path class="st1" d="M113.8,35.3c-3.8,0-6.2,3.2-6.2,8.2c0,5,2.5,7.9,6.6,7.9c2,0,3.6-0.7,5-1.9l-0.8-1.1c-1.4,1-2.5,1.5-4.2,1.5
			c-2.7,0-4.6-1.7-4.8-5.9h10.3c0-0.3,0.1-0.8,0.1-1.2C119.9,38.2,117.9,35.3,113.8,35.3z M118.2,42.6h-8.7c0.2-4.2,2-6,4.4-6
			c2.9,0,4.3,2.2,4.3,5.5V42.6z"/>
	</g>
</g>
<g id="Layer_2">
	<line class="st2" x1="11.5" y1="38.5" x2="27.9" y2="38.8"/>
	<circle class="st2" cx="30.8" cy="38.5" r="2.9"/>
	<line class="st2" x1="17.7" y1="28.6" x2="44.5" y2="28.6"/>
	<circle class="st2" cx="47.4" cy="28.3" r="2.9"/>
	<circle class="st2" cx="14.8" cy="29" r="2.9"/>
	<line class="st2" x1="58.5" y1="18.5" x2="33.7" y2="18.4"/>
	<circle class="st2" cx="30.8" cy="18.7" r="2.9"/>
</g>
</svg>
